<svg xmlns="http://www.w3.org/2000/svg" viewBox="0 0 169.8 226.5"><defs><style>.cls-1{fill:#fff;}</style></defs><title>icon-key</title><g id="レイヤー_2" data-name="レイヤー 2"><g id="レイヤー_2-2" data-name="レイヤー 2"><path class="cls-1" d="M141.31,226.5H28.48A28.52,28.52,0,0,1,0,198V28.48A28.52,28.52,0,0,1,28.48,0H141.31A28.52,28.52,0,0,1,169.8,28.48V198A28.52,28.52,0,0,1,141.31,226.5ZM28.48,16A12.5,12.5,0,0,0,16,28.48V198A12.5,12.5,0,0,0,28.48,210.5H141.31A12.5,12.5,0,0,0,153.8,198V28.48A12.5,12.5,0,0,0,141.31,16Z"/><path class="cls-1" d="M117.92,91.37A30.24,30.24,0,1,0,79.5,120.48v16h-18v16h18v13h16V120.58A30.29,30.29,0,0,0,117.92,91.37ZM89.4,105.5H86a14.24,14.24,0,1,1,3.44,0Z"/></g></g></svg>