<svg xmlns="http://www.w3.org/2000/svg" viewBox="0 0 230 230"><defs><style>.cls-1{fill:#fff;}</style></defs><title>icon-room</title><g id="レイヤー_2" data-name="レイヤー 2"><g id="レイヤー_2-2" data-name="レイヤー 2"><path class="cls-1" d="M181.35,0H48.65A48.71,48.71,0,0,0,0,48.65v132.7A48.71,48.71,0,0,0,48.65,230h132.7A48.71,48.71,0,0,0,230,181.35V48.65A48.71,48.71,0,0,0,181.35,0ZM121.5,16.28v8.35H110.21V16.28ZM102.87,51.41a23.37,23.37,0,0,0,6.45-10.78h13.09A24.38,24.38,0,0,0,129,51.53h0a18.77,18.77,0,0,1,5.85,14.19,19,19,0,0,1-37.92-.5A18.75,18.75,0,0,1,102.87,51.41ZM214,181.35A32.69,32.69,0,0,1,181.35,214H48.65A32.69,32.69,0,0,1,16,181.35V48.65A32.69,32.69,0,0,1,48.65,16H94.21V34.17a7.61,7.61,0,0,1-2.31,5.58,35.13,35.13,0,0,0-11,25.47,35,35,0,0,0,34.94,35c.55,0,1.11,0,1.66,0A35,35,0,0,0,140,40a8.12,8.12,0,0,1-2.53-5.83V16h43.85A32.69,32.69,0,0,1,214,48.65Z"/><rect class="cls-1" x="107.85" y="118.21" width="16" height="32.54"/><rect class="cls-1" x="61.47" y="118.35" width="32.54" height="16" transform="translate(-69.5 108.26) rotate(-51.4)"/><rect class="cls-1" x="151.08" y="110.08" width="16" height="32.54" transform="translate(-43.91 118.24) rotate(-36.17)"/><rect class="cls-1" x="35.9" y="89.06" width="32.54" height="16" transform="translate(-33.91 28.27) rotate(-23.11)"/><rect class="cls-1" x="175.72" y="82.19" width="16" height="32.54" transform="translate(25.79 234.49) rotate(-68.93)"/></g></g></svg>