<svg id="レイヤー_1" data-name="レイヤー 1" xmlns="http://www.w3.org/2000/svg" viewBox="0 0 1920 1080"><defs><style>.cls-1{fill:#303030;}.cls-2{fill:#4a4a4a;}</style></defs><title>no-image</title><rect class="cls-1" x="0.5" y="-18.5" width="1919" height="1098"/><path d="M1919-18V1079H1V-18H1919m1-1H0V1080H1920V-19Z"/><path class="cls-2" d="M960.1,738C851,738,762.19,649.17,762.19,540.05S851,342.14,960.1,342.14,1158,430.92,1158,540.05,1069.22,738,960.1,738Zm0-355.62c-87,0-157.73,70.75-157.73,157.72S873.13,697.77,960.1,697.77,1117.82,627,1117.82,540.05,1047.06,382.33,960.1,382.33Z"/><path class="cls-2" d="M881.19,639.11V440.46h41.24v75.73h77.23V440.46h41.23V639.11H999.66V550.43H922.43v88.68Z"/></svg>